<svg xmlns="http://www.w3.org/2000/svg" xmlns:xlink="http://www.w3.org/1999/xlink" width="500" zoomAndPan="magnify" viewBox="0 0 375 374.999991" height="500" preserveAspectRatio="xMidYMid meet" version="1.0"><path fill="#f9e7cf" d="M 220.566406 31.433594 L 217.832031 31.558594 C 198.09375 31.425781 171.386719 36.785156 137.714844 47.636719 C 110.019531 57.515625 89.941406 67.546875 77.484375 77.738281 C 65.460938 87.46875 58.273438 94.277344 55.914062 98.164062 C 51.488281 103.789062 47.671875 109.84375 44.460938 116.328125 C 35.222656 136.289062 29.632812 157.84375 27.683594 180.992188 C 24.449219 210.429688 24.425781 237.972656 27.617188 263.613281 C 32.242188 286.542969 37.917969 301.121094 44.644531 307.347656 C 49.011719 315.246094 62.574219 322.882812 85.328125 330.25 L 153.859375 346.308594 C 168.089844 348.789062 178.980469 349.742188 186.539062 349.167969 C 216.261719 347.835938 249.839844 333.996094 287.28125 307.648438 L 337.605469 271.195312 C 348.507812 262.4375 354.683594 256.960938 356.125 254.761719 C 364.375 244.460938 368.644531 237.925781 368.929688 235.152344 C 370.976562 229.835938 372.121094 225.148438 372.363281 221.09375 C 374.007812 209.925781 369.527344 194.785156 358.921875 175.667969 C 339.34375 143.839844 318.132812 113.734375 295.289062 85.347656 C 277.511719 62.679688 264.9375 49.066406 257.558594 44.503906 C 246.621094 36.121094 234.289062 31.765625 220.566406 31.433594 " fill-opacity="1" fill-rule="nonzero"/><path fill="#cfb48b" d="M 250.773438 33.167969 C 250.714844 33.109375 233.308594 16.050781 222.394531 11.730469 C 221.53125 11.390625 220.660156 11.066406 219.777344 10.757812 C 200.671875 4.0625 176.75 4.75 159.769531 15.121094 C 147.828125 22.414062 141.199219 36.714844 135.410156 49.925781 C 132.722656 56.054688 130.242188 62.339844 127.75 68.652344 C 125.253906 74.980469 122.746094 81.335938 120.015625 87.5625 C 115.160156 98.640625 109.585938 109.347656 102.070312 118.839844 C 91.003906 132.804688 75.496094 142.636719 60.226562 152.328125 C 45.007812 161.988281 30.035156 171.503906 19.460938 184.851562 C 17.644531 187.144531 15.964844 189.542969 14.429688 192.078125 C 2.460938 211.878906 8.691406 239.285156 14.867188 262.207031 C 25.335938 301.078125 47.046875 345.191406 83.8125 360.46875 C 85.492188 361.167969 87.191406 361.8125 88.90625 362.417969 C 104.773438 367.976562 122.070312 369.574219 139.019531 370.660156 C 171.386719 372.734375 204.082031 371.121094 236.300781 367.148438 C 257.855469 364.492188 279.433594 360.894531 300.082031 354.367188 C 315.292969 349.558594 333.414062 341.1875 337.542969 326.488281 C 341.621094 311.972656 335.976562 295.796875 330.484375 281.273438 C 326.722656 271.324219 322.34375 261.625 317.945312 251.886719 C 314.253906 243.710938 310.546875 235.503906 307.210938 227.148438 C 297.53125 202.910156 292.488281 177.15625 287.46875 151.5625 C 285.699219 142.542969 283.9375 133.550781 281.972656 124.621094 C 277.53125 104.414062 272.875 84.214844 266.046875 64.757812 C 262.160156 53.679688 250.617188 32.96875 250.597656 32.941406 L 250.773438 33.167969 M 252.1875 31.730469 C 252.257812 31.796875 252.316406 31.875 252.363281 31.957031 C 252.347656 31.929688 263.996094 52.8125 267.953125 64.089844 C 274.824219 83.675781 279.5 103.984375 283.945312 124.1875 C 285.914062 133.140625 287.683594 142.160156 289.449219 151.175781 C 294.472656 176.800781 299.488281 202.363281 309.085938 226.402344 C 312.402344 234.707031 316.089844 242.871094 319.785156 251.058594 C 324.179688 260.789062 328.582031 270.539062 332.371094 280.558594 C 337.820312 294.964844 343.773438 311.777344 339.488281 327.035156 C 335.027344 342.90625 315.769531 351.523438 300.691406 356.289062 C 279.871094 362.875 258.152344 366.488281 236.546875 369.152344 C 204.230469 373.136719 171.410156 374.757812 138.890625 372.675781 C 121.9375 371.589844 104.394531 369.980469 88.238281 364.320312 C 86.484375 363.707031 84.757812 363.046875 83.039062 362.332031 C 45.339844 346.664062 23.410156 301.695312 12.917969 262.734375 C 6.792969 240.003906 0.210938 211.695312 12.703125 191.035156 C 14.28125 188.421875 16.015625 185.953125 17.878906 183.601562 C 28.699219 169.9375 43.988281 160.246094 59.144531 150.625 C 74.472656 140.898438 89.671875 131.238281 100.484375 117.585938 C 107.851562 108.289062 113.34375 97.757812 118.167969 86.753906 C 120.878906 80.566406 123.375 74.246094 125.875 67.914062 C 128.363281 61.605469 130.855469 55.285156 133.558594 49.117188 C 139.300781 36.023438 146.144531 21.078125 158.71875 13.398438 C 176.324219 2.648438 200.902344 2.003906 220.445312 8.851562 C 221.351562 9.171875 222.25 9.503906 223.136719 9.855469 C 234.519531 14.359375 252.25 31.789062 252.1875 31.730469 Z M 252.1875 31.730469 " fill-opacity="0.961" fill-rule="nonzero"/></svg>