<svg xmlns="http://www.w3.org/2000/svg" xmlns:xlink="http://www.w3.org/1999/xlink" width="1366" zoomAndPan="magnify" viewBox="0 0 1024.5 576" height="768" preserveAspectRatio="xMidYMid meet" version="1.0"><defs><clipPath id="7ba2c0498d"><path d="M 0 0.140625 L 1024 0.140625 L 1024 575.859375 L 0 575.859375 Z M 0 0.140625 " clip-rule="nonzero"/></clipPath><clipPath id="0ac26ebcdd"><path d="M 878 413 L 999 413 L 999 525 L 878 525 Z M 878 413 " clip-rule="nonzero"/></clipPath><clipPath id="ff73b64727"><path d="M 860.375 467.351562 L 965.695312 402.492188 L 1016.796875 485.472656 L 911.476562 550.332031 Z M 860.375 467.351562 " clip-rule="nonzero"/></clipPath><clipPath id="c658261d40"><path d="M 860.375 467.351562 L 965.695312 402.492188 L 1016.796875 485.472656 L 911.476562 550.332031 Z M 860.375 467.351562 " clip-rule="nonzero"/></clipPath><clipPath id="a239e12bd5"><path d="M 860.375 467.351562 L 965.695312 402.492188 L 1016.796875 485.472656 L 911.476562 550.332031 Z M 860.375 467.351562 " clip-rule="nonzero"/></clipPath></defs><g clip-path="url(#7ba2c0498d)"><path fill="#ffffff" d="M 0 0.140625 L 1024 0.140625 L 1024 575.859375 L 0 575.859375 Z M 0 0.140625 " fill-opacity="1" fill-rule="nonzero"/><path fill="#f8f8f8" d="M 0 0.140625 L 1024 0.140625 L 1024 575.859375 L 0 575.859375 Z M 0 0.140625 " fill-opacity="1" fill-rule="nonzero"/></g><path fill="#e0c3de" d="M 41.242188 77.859375 C 52.039062 76.320312 62.148438 83.335938 70.03125 91.035156 C 77.914062 98.566406 85.28125 107.464844 95.734375 111.058594 C 103.101562 113.625 111.15625 113.109375 118.867188 113.796875 C 126.578125 114.480469 134.972656 116.703125 139.773438 122.863281 C 144.914062 129.539062 144.398438 139.121094 140.285156 146.480469 C 136.171875 153.839844 129.148438 158.972656 121.78125 162.90625 C 114.410156 166.84375 106.527344 169.753906 99.160156 173.6875 C 89.394531 178.992188 80.140625 186.695312 69.003906 187.207031 C 59.40625 187.71875 50.496094 182.585938 42.097656 177.625 C 34.046875 172.832031 25.136719 166.84375 24.105469 157.773438 C 23.25 150.929688 27.191406 144.425781 30.105469 138.265625 C 33.1875 132.105469 35.585938 124.40625 31.988281 118.585938 C 27.363281 110.886719 15.539062 106.949219 21.363281 96.171875 C 26.164062 87.785156 31.132812 79.230469 41.242188 77.859375 Z M 109.269531 100.617188 C 117.839844 98.050781 114.238281 81.28125 104.816406 84.019531 C 95.046875 86.929688 100.359375 103.1875 109.269531 100.617188 Z M 29.761719 205.515625 C 38.328125 202.949219 34.730469 186.179688 25.304688 188.917969 C 15.539062 191.828125 20.851562 208.085938 29.761719 205.515625 Z M 29.761719 205.515625 " fill-opacity="1" fill-rule="nonzero"/><path fill="#ae94c3" d="M 94.191406 191.3125 C 82.195312 191.3125 70.371094 186.695312 61.804688 178.308594 C 60.089844 176.597656 58.378906 174.714844 56.835938 172.832031 C 54.09375 169.582031 51.179688 166.160156 47.582031 163.761719 C 44.328125 161.539062 40.386719 160.167969 36.789062 158.800781 C 35.929688 158.457031 35.246094 158.289062 34.386719 157.945312 C 29.761719 156.234375 24.964844 154.179688 21.535156 150.414062 C 17.765625 146.136719 16.566406 140.320312 18.792969 136.042969 C 18.964844 135.699219 19.480469 135.527344 19.996094 135.699219 C 20.335938 135.871094 20.507812 136.382812 20.335938 136.898438 C 18.109375 141.175781 19.996094 146.308594 22.734375 149.390625 C 25.992188 152.984375 30.445312 154.863281 34.902344 156.578125 C 35.585938 156.917969 36.445312 157.089844 37.300781 157.433594 C 41.070312 158.800781 45.011719 160.167969 48.4375 162.566406 C 52.210938 165.132812 55.292969 168.554688 58.035156 171.976562 C 59.578125 173.859375 61.121094 175.742188 62.832031 177.28125 C 75.34375 189.601562 95.21875 193.367188 111.328125 186.351562 C 114.070312 185.152344 120.238281 181.902344 120.410156 176.425781 C 120.410156 173.515625 118.867188 170.78125 116.980469 168.042969 C 114.925781 164.960938 113.039062 161.710938 113.382812 157.945312 C 113.898438 153.839844 117.152344 151.269531 120.410156 148.875 C 122.808594 146.992188 125.378906 144.941406 126.578125 142.375 C 128.804688 137.410156 125.378906 131.421875 120.921875 128.511719 C 116.808594 125.945312 111.667969 124.917969 106.871094 123.890625 C 106.015625 123.71875 105.328125 123.550781 104.472656 123.378906 C 98.816406 122.179688 92.476562 120.46875 88.363281 115.679688 C 84.765625 111.398438 83.910156 105.925781 83.054688 100.449219 C 82.367188 95.828125 81.511719 90.863281 78.941406 87.101562 C 73.972656 79.570312 63.347656 78.03125 55.464844 80.425781 C 47.070312 82.992188 39.871094 89.152344 33.53125 95.484375 C 30.445312 98.566406 27.191406 101.988281 25.476562 105.925781 C 23.933594 109.347656 23.25 114.308594 25.820312 118.074219 C 26.164062 118.414062 25.992188 118.929688 25.648438 119.273438 C 25.304688 119.613281 24.792969 119.441406 24.449219 119.101562 C 22.050781 115.335938 21.878906 110.03125 23.933594 105.238281 C 25.820312 100.960938 29.074219 97.539062 32.332031 94.289062 C 38.84375 87.785156 46.039062 81.453125 54.949219 78.886719 C 63.519531 76.320312 75 78.03125 80.484375 86.246094 C 83.222656 90.351562 84.082031 95.484375 84.9375 100.277344 C 85.792969 105.753906 86.652344 110.714844 89.90625 114.652344 C 93.675781 119.101562 99.675781 120.8125 104.988281 121.839844 C 105.84375 122.007812 106.527344 122.179688 107.386719 122.351562 C 112.355469 123.378906 117.667969 124.234375 122.121094 127.144531 C 127.261719 130.394531 131.03125 137.410156 128.460938 143.230469 C 127.089844 146.308594 124.351562 148.363281 121.78125 150.414062 C 118.695312 152.8125 115.953125 155.035156 115.4375 158.457031 C 115.097656 161.539062 116.808594 164.449219 118.695312 167.355469 C 120.582031 170.265625 122.464844 173.175781 122.292969 176.769531 C 122.121094 183.269531 115.269531 187.035156 112.183594 188.234375 C 106.527344 189.945312 100.359375 191.3125 94.191406 191.3125 Z M 113.726562 95.828125 C 118.695312 94.289062 120.066406 88.640625 118.695312 84.019531 C 117.496094 79.742188 113.898438 76.148438 108.757812 77.6875 C 105.84375 78.542969 103.789062 80.597656 103.101562 83.507812 C 102.246094 87.101562 103.445312 91.378906 106.1875 94.117188 C 107.726562 95.65625 109.441406 96.339844 111.5 96.339844 C 112.355469 96 113.039062 96 113.726562 95.828125 Z M 117.152344 84.363281 C 118.351562 88.296875 117.324219 92.917969 113.382812 94.117188 C 110.8125 94.800781 108.757812 93.773438 107.726562 92.578125 C 105.5 90.351562 104.300781 86.585938 104.988281 83.679688 C 105.328125 82.136719 106.527344 80.085938 109.441406 79.230469 C 110.128906 79.058594 110.640625 78.886719 111.15625 78.886719 C 114.238281 78.886719 116.296875 81.625 117.152344 84.363281 Z M 34.21875 200.554688 C 39.1875 199.015625 40.558594 193.367188 39.1875 188.746094 C 37.988281 184.46875 34.386719 180.875 29.246094 182.414062 C 26.335938 183.269531 24.277344 185.324219 23.59375 188.234375 C 22.734375 191.828125 23.933594 196.105469 26.675781 198.84375 C 28.21875 200.382812 29.933594 201.066406 31.988281 201.066406 C 32.847656 200.898438 33.53125 200.898438 34.21875 200.554688 Z M 34.046875 199.871094 Z M 37.644531 189.261719 C 38.84375 193.195312 37.816406 197.816406 33.875 199.015625 C 31.304688 199.699219 29.246094 198.671875 28.21875 197.472656 C 25.992188 195.25 24.792969 191.484375 25.476562 188.578125 C 25.820312 187.035156 27.019531 184.984375 29.933594 184.128906 C 30.617188 183.957031 31.132812 183.785156 31.648438 183.785156 C 34.730469 183.785156 36.789062 186.523438 37.644531 189.261719 Z M 37.644531 189.261719 " fill-opacity="1" fill-rule="nonzero"/><g clip-path="url(#0ac26ebcdd)"><g clip-path="url(#ff73b64727)"><g clip-path="url(#c658261d40)"><g clip-path="url(#a239e12bd5)"><path fill="#98d6e3" d="M 887.960938 468.164062 C 882.238281 473.914062 878.152344 481.835938 878.875 489.941406 C 879.597656 498.042969 886.183594 505.816406 894.300781 506.082031 C 901.945312 506.332031 909.074219 500.363281 916.59375 501.796875 C 926.367188 503.65625 929.867188 516.164062 938.175781 521.664062 C 943.199219 524.996094 950.015625 525.390625 955.367188 522.664062 C 960.722656 519.9375 964.410156 514.195312 964.671875 508.179688 C 964.878906 503.402344 963.09375 498.589844 964.015625 493.902344 C 965.246094 487.65625 970.921875 483.324219 976.621094 480.511719 C 982.316406 477.695312 988.589844 475.6875 993.238281 471.351562 C 997.882812 467.015625 1000.242188 459.238281 996.246094 454.265625 C 991.960938 448.925781 983.363281 449.839844 977.902344 445.714844 C 969.121094 439.074219 972.699219 423.472656 964.265625 416.394531 C 957.386719 410.625 946.414062 414.300781 940.445312 420.96875 C 934.480469 427.636719 931.628906 436.488281 926.8125 444.035156 C 917.535156 458.574219 899.78125 456.28125 887.960938 468.164062 Z M 887.960938 468.164062 " fill-opacity="1" fill-rule="nonzero"/></g></g></g></g></svg>