<svg xmlns="http://www.w3.org/2000/svg" xmlns:xlink="http://www.w3.org/1999/xlink" width="1366" zoomAndPan="magnify" viewBox="0 0 1024.5 576" height="768" preserveAspectRatio="xMidYMid meet" version="1.0"><defs><clipPath id="5917782d1c"><path d="M 927 478 L 1024 478 L 1024 575.859375 L 927 575.859375 Z M 927 478 " clip-rule="nonzero"/></clipPath><clipPath id="4b4e1941e3"><path d="M 920.800781 598.050781 L 914.921875 466.996094 L 1031.746094 461.753906 L 1037.625 592.808594 Z M 920.800781 598.050781 " clip-rule="nonzero"/></clipPath><clipPath id="05d2a818cd"><path d="M 920.027344 580.824219 L 914.921875 466.996094 L 1031.746094 461.753906 L 1036.851562 575.582031 Z M 920.027344 580.824219 " clip-rule="nonzero"/></clipPath><clipPath id="659c913468"><path d="M 920.800781 598.089844 L 914.921875 467.035156 L 1031.746094 461.792969 L 1037.628906 592.847656 Z M 920.800781 598.089844 " clip-rule="nonzero"/></clipPath><clipPath id="16f5dc860b"><path d="M 918 463 L 1024 463 L 1024 569 L 918 569 Z M 918 463 " clip-rule="nonzero"/></clipPath><clipPath id="66b2ee2b8c"><path d="M 920.800781 598.050781 L 914.921875 466.996094 L 1031.746094 461.753906 L 1037.625 592.808594 Z M 920.800781 598.050781 " clip-rule="nonzero"/></clipPath><clipPath id="b77c5039c2"><path d="M 920.027344 580.824219 L 914.921875 466.996094 L 1031.746094 461.753906 L 1036.851562 575.582031 Z M 920.027344 580.824219 " clip-rule="nonzero"/></clipPath><clipPath id="64fd24d161"><path d="M 920.800781 598.089844 L 914.921875 467.035156 L 1031.746094 461.792969 L 1037.628906 592.847656 Z M 920.800781 598.089844 " clip-rule="nonzero"/></clipPath><clipPath id="917e7953ad"><path d="M 943 478 L 1021 478 L 1021 569 L 943 569 Z M 943 478 " clip-rule="nonzero"/></clipPath><clipPath id="24d1d291e4"><path d="M 920.800781 598.050781 L 914.921875 466.996094 L 1031.746094 461.753906 L 1037.625 592.808594 Z M 920.800781 598.050781 " clip-rule="nonzero"/></clipPath><clipPath id="b41f987ed9"><path d="M 920.027344 580.824219 L 914.921875 466.996094 L 1031.746094 461.753906 L 1036.851562 575.582031 Z M 920.027344 580.824219 " clip-rule="nonzero"/></clipPath><clipPath id="138f91e940"><path d="M 920.800781 598.089844 L 914.921875 467.035156 L 1031.746094 461.792969 L 1037.628906 592.847656 Z M 920.800781 598.089844 " clip-rule="nonzero"/></clipPath><clipPath id="a40cd4664a"><path d="M 842.085938 111.6875 L 956.777344 111.6875 L 956.777344 197 L 842.085938 197 Z M 842.085938 111.6875 " clip-rule="nonzero"/></clipPath><clipPath id="af55193394"><path d="M 482 442.074219 L 590 442.074219 L 590 547 L 482 547 Z M 482 442.074219 " clip-rule="nonzero"/></clipPath><clipPath id="032320a954"><path d="M 0 121 L 62 121 L 62 248 L 0 248 Z M 0 121 " clip-rule="nonzero"/></clipPath><clipPath id="b0d1b52600"><path d="M 33.40625 263.265625 L -74.765625 225.140625 L -33.402344 107.777344 L 74.769531 145.902344 Z M 33.40625 263.265625 " clip-rule="nonzero"/></clipPath><clipPath id="4f81c72c14"><path d="M 33.40625 263.265625 L -74.765625 225.140625 L -33.402344 107.777344 L 74.769531 145.902344 Z M 33.40625 263.265625 " clip-rule="nonzero"/></clipPath><clipPath id="3aaf1efaad"><path d="M 33.40625 263.265625 L -74.765625 225.140625 L -33.402344 107.777344 L 74.769531 145.902344 Z M 33.40625 263.265625 " clip-rule="nonzero"/></clipPath><clipPath id="43160875e2"><path d="M 0 122 L 57 122 L 57 242 L 0 242 Z M 0 122 " clip-rule="nonzero"/></clipPath><clipPath id="8621c71fd7"><path d="M 33.40625 263.265625 L -74.765625 225.140625 L -33.402344 107.777344 L 74.769531 145.902344 Z M 33.40625 263.265625 " clip-rule="nonzero"/></clipPath><clipPath id="27448e7bc3"><path d="M 33.40625 263.265625 L -74.765625 225.140625 L -33.402344 107.777344 L 74.769531 145.902344 Z M 33.40625 263.265625 " clip-rule="nonzero"/></clipPath><clipPath id="fd2df65df1"><path d="M 33.40625 263.265625 L -74.765625 225.140625 L -33.402344 107.777344 L 74.769531 145.902344 Z M 33.40625 263.265625 " clip-rule="nonzero"/></clipPath><clipPath id="370a688595"><path d="M 0 518 L 115 518 L 115 575.859375 L 0 575.859375 Z M 0 518 " clip-rule="nonzero"/></clipPath></defs><g clip-path="url(#5917782d1c)"><g clip-path="url(#4b4e1941e3)"><g clip-path="url(#05d2a818cd)"><g clip-path="url(#659c913468)"><path fill="#4982ae" d="M 1011.460938 480.042969 C 1005.488281 483.230469 1002.34375 490.183594 1001.847656 496.929688 C 1001.355469 503.675781 1003.070312 510.351562 1004.667969 516.917969 C 1006.230469 523.480469 1007.6875 530.257812 1006.65625 536.941406 C 1005.628906 543.621094 1001.554688 550.234375 995.183594 552.433594 C 990.09375 554.167969 984.574219 552.941406 979.222656 552.238281 C 972.121094 551.289062 964.859375 551.378906 957.792969 552.492188 C 952.746094 553.277344 947.695312 554.59375 943.128906 556.863281 C 941.800781 557.515625 940.503906 558.25 939.242188 559.074219 C 933.734375 562.710938 929.253906 568.191406 927.742188 574.628906 C 926.53125 579.875 927.523438 585.609375 930.617188 590.042969 C 933.296875 593.8125 936.605469 593.753906 941.050781 594.144531 C 953.183594 595.28125 965.625 596.078125 977.503906 592.921875 C 982.585938 591.574219 987.484375 589.523438 992.628906 588.351562 C 1005.261719 585.484375 1019.75 587.78125 1030.089844 579.976562 C 1031.40625 578.972656 1032.652344 577.765625 1033.199219 576.207031 C 1033.671875 574.859375 1033.578125 573.417969 1033.425781 572.011719 C 1032.714844 566.054688 1030.65625 560.308594 1030.003906 554.351562 C 1028.660156 542.117188 1033.164062 530 1033.382812 517.691406 C 1033.578125 504.945312 1028.957031 492.175781 1020.636719 482.523438 C 1020.515625 482.382812 1020.421875 482.265625 1020.296875 482.125 C 1019.113281 480.792969 1017.753906 479.4375 1015.992188 479.074219 C 1014.445312 478.789062 1012.84375 479.304688 1011.460938 480.042969 Z M 1011.460938 480.042969 " fill-opacity="1" fill-rule="nonzero"/></g></g></g></g><g clip-path="url(#16f5dc860b)"><g clip-path="url(#66b2ee2b8c)"><g clip-path="url(#b77c5039c2)"><g clip-path="url(#64fd24d161)"><path fill="#e0e8ee" d="M 989.96875 466.472656 C 980.207031 471.449219 974.90625 482.363281 965.910156 488.578125 C 957.433594 494.441406 946.671875 495.542969 936.417969 496.800781 C 932.480469 497.273438 928.375 497.867188 925.078125 500.109375 C 920.808594 503.042969 918.710938 508.359375 918.472656 513.53125 C 917.765625 528.070312 928.125 545.003906 939.101562 553.976562 C 940.390625 555.011719 941.734375 555.984375 943.101562 556.835938 C 951.21875 561.988281 960.898438 564.472656 970.359375 566.613281 C 975.640625 567.820312 981.066406 568.964844 986.40625 568.164062 C 990.632812 567.503906 994.566406 565.675781 998.25 563.535156 C 1008.441406 557.648438 1017.828125 548.265625 1018.808594 536.542969 C 1019.648438 526.332031 1013.960938 516.675781 1013.085938 506.453125 C 1012.46875 499.226562 1014.351562 491.828125 1018.363281 485.78125 C 1019.082031 484.6875 1019.890625 483.617188 1020.667969 482.492188 C 1022.804688 479.449219 1024.761719 476.320312 1024.394531 472.742188 C 1024.023438 469.101562 1021.113281 466.105469 1017.769531 464.632812 C 1014.421875 463.160156 1010.664062 462.976562 1007.003906 463.050781 C 1001.132812 463.167969 995.167969 463.847656 989.96875 466.472656 Z M 989.96875 466.472656 " fill-opacity="1" fill-rule="nonzero"/></g></g></g></g><g clip-path="url(#917e7953ad)"><g clip-path="url(#24d1d291e4)"><g clip-path="url(#b41f987ed9)"><g clip-path="url(#138f91e940)"><path fill="#a8c5dc" d="M 1015.992188 479.074219 C 1014.445312 478.761719 1012.84375 479.304688 1011.460938 480.042969 C 1005.488281 483.230469 1002.34375 490.183594 1001.847656 496.929688 C 1001.355469 503.675781 1003.070312 510.351562 1004.667969 516.917969 C 1006.230469 523.480469 1007.6875 530.257812 1006.65625 536.941406 C 1005.628906 543.621094 1001.554688 550.234375 995.183594 552.433594 C 990.09375 554.167969 984.574219 552.941406 979.222656 552.238281 C 972.121094 551.289062 964.859375 551.378906 957.792969 552.492188 C 952.746094 553.277344 947.695312 554.59375 943.128906 556.863281 C 951.25 562.015625 960.929688 564.5 970.390625 566.640625 C 975.671875 567.847656 981.097656 568.992188 986.4375 568.191406 C 990.660156 567.53125 994.597656 565.703125 998.28125 563.5625 C 1008.472656 557.679688 1017.859375 548.292969 1018.839844 536.570312 C 1019.679688 526.359375 1013.992188 516.703125 1013.117188 506.480469 C 1012.5 499.253906 1014.382812 491.855469 1018.394531 485.808594 C 1019.113281 484.714844 1019.921875 483.644531 1020.699219 482.519531 C 1020.574219 482.378906 1020.480469 482.265625 1020.355469 482.121094 C 1019.113281 480.792969 1017.753906 479.4375 1015.992188 479.074219 Z M 1015.992188 479.074219 " fill-opacity="1" fill-rule="nonzero"/></g></g></g></g><g clip-path="url(#a40cd4664a)"><path fill="#060606" d="M 881.292969 196.507812 C 880.351562 195.984375 878.121094 193.652344 877.988281 193.058594 C 877.6875 191.699219 878.734375 190.578125 880.125 190.773438 C 882.183594 191.058594 882.789062 191.296875 883.5625 192.128906 C 884.574219 193.210938 884.953125 194.414062 884.574219 195.324219 C 884.074219 196.535156 882.414062 197.132812 881.292969 196.507812 Z M 908.683594 188.675781 C 907.90625 188.140625 907.675781 187.78125 907.308594 186.519531 C 907.125 185.886719 906.851562 184.996094 906.703125 184.546875 C 905.964844 182.277344 908.191406 180.652344 910.183594 182.007812 C 911.398438 182.832031 911.769531 183.949219 911.878906 187.128906 C 911.929688 188.589844 909.953125 189.550781 908.683594 188.675781 Z M 856.457031 181.441406 C 855.515625 180.652344 855.175781 179.71875 855.273438 178.191406 C 855.347656 177.027344 855.441406 176.765625 855.9375 176.339844 C 856.671875 175.707031 857.929688 175.683594 858.976562 176.277344 C 860.027344 176.871094 860.523438 177.617188 860.632812 178.757812 C 860.71875 179.644531 860.652344 179.824219 859.863281 180.820312 C 859.035156 181.863281 858.949219 181.914062 858.003906 181.914062 C 857.285156 181.914062 856.863281 181.785156 856.457031 181.441406 Z M 937.996094 176.253906 C 936.652344 175.546875 935.519531 172.960938 935.828125 171.316406 C 936.03125 170.238281 936.96875 169.355469 937.90625 169.355469 C 939.191406 169.355469 939.660156 169.683594 940.761719 171.375 C 941.738281 172.878906 941.8125 173.085938 941.8125 174.296875 C 941.8125 175.492188 941.761719 175.640625 941.167969 176.140625 C 940.371094 176.808594 939.132812 176.851562 937.996094 176.253906 Z M 880.671875 175.40625 C 880.015625 175.214844 878.109375 173.429688 877.835938 172.746094 C 877.757812 172.550781 877.6875 171.753906 877.679688 170.972656 C 877.664062 169.65625 877.710938 169.507812 878.355469 168.808594 C 879.542969 167.511719 881 167.816406 882.242188 169.617188 C 884.0625 172.261719 884.03125 174.558594 882.164062 175.339844 C 881.773438 175.5 881.425781 175.625 881.394531 175.617188 C 881.359375 175.605469 881.035156 175.511719 880.671875 175.40625 Z M 900.738281 172.128906 C 899.738281 171.617188 899.269531 170.894531 899.121094 169.621094 C 898.996094 168.582031 899.023438 168.5 899.730469 167.792969 C 901.042969 166.480469 902.71875 166.886719 903.664062 168.738281 C 904.140625 169.671875 904.15625 169.808594 903.855469 170.882812 C 903.707031 171.417969 903.414062 171.8125 902.964844 172.085938 C 902.140625 172.589844 901.664062 172.597656 900.738281 172.128906 Z M 918.976562 163.128906 C 917.160156 162.234375 916.15625 160.40625 916.734375 159.03125 C 917.164062 157.996094 917.871094 157.421875 918.707031 157.421875 C 919.625 157.421875 920.484375 157.933594 920.957031 158.757812 C 921.160156 159.117188 921.539062 159.644531 921.800781 159.933594 C 922.492188 160.703125 922.601562 161.285156 922.207031 162.109375 C 921.863281 162.835938 920.84375 163.496094 920.085938 163.488281 C 919.871094 163.484375 919.375 163.324219 918.976562 163.128906 Z M 953.5 161.070312 C 952.703125 160.636719 952.109375 159.359375 951.875 157.574219 C 951.550781 155.058594 951.597656 154.574219 952.253906 153.839844 C 952.734375 153.304688 953.046875 153.164062 953.925781 153.078125 C 954.945312 152.980469 955.054688 153.015625 955.75 153.710938 C 956.371094 154.335938 956.488281 154.59375 956.488281 155.378906 C 956.488281 155.890625 956.546875 157.167969 956.621094 158.214844 L 956.757812 160.113281 L 956.113281 160.757812 C 955.386719 161.484375 954.46875 161.59375 953.5 161.070312 Z M 860.136719 159.117188 C 859.132812 158.503906 858.527344 157.5 858.425781 156.289062 C 858.347656 155.34375 858.402344 155.15625 858.90625 154.652344 C 860.152344 153.40625 861.585938 153.742188 862.957031 155.597656 C 863.980469 156.976562 864.144531 157.5 863.820312 158.285156 C 863.328125 159.472656 861.425781 159.902344 860.136719 159.117188 Z M 936.90625 154.738281 C 935.582031 154.285156 934.679688 153.210938 934.53125 151.902344 C 934.394531 150.6875 934.558594 150.070312 935.226562 149.277344 C 936.007812 148.347656 937.132812 148.058594 938.128906 148.53125 C 938.953125 148.921875 939.929688 150.144531 939.929688 150.792969 C 939.929688 151.003906 940.117188 151.421875 940.347656 151.714844 C 940.800781 152.289062 940.898438 153.433594 940.550781 154.085938 C 940.265625 154.617188 939.253906 155.125 938.523438 155.101562 C 938.199219 155.09375 937.472656 154.929688 936.90625 154.738281 Z M 844.53125 149.621094 C 843 148.589844 842.109375 146.207031 842.648438 144.578125 C 843.167969 143.011719 844.945312 142.460938 846.167969 143.488281 C 847.386719 144.511719 847.84375 145.460938 847.992188 147.28125 C 848.125 148.917969 848.113281 148.988281 847.566406 149.53125 C 846.832031 150.269531 845.546875 150.304688 844.53125 149.621094 Z M 880.296875 149.269531 C 878.832031 148.304688 878.21875 146.015625 879.1875 145.132812 C 879.847656 144.527344 880.496094 144.375 881.304688 144.640625 C 882.65625 145.089844 883.90625 147.007812 883.636719 148.230469 C 883.347656 149.550781 881.566406 150.101562 880.296875 149.269531 Z M 901.832031 149.195312 C 901.574219 149.050781 900.867188 148.378906 900.257812 147.695312 L 899.152344 146.457031 L 899.152344 144.828125 C 899.152344 143.324219 899.199219 143.152344 899.734375 142.617188 C 900.214844 142.136719 900.496094 142.035156 901.375 142.035156 C 902.34375 142.035156 902.5 142.109375 903.238281 142.898438 C 904.039062 143.753906 904.496094 144.863281 904.496094 145.949219 C 904.5 146.257812 904.59375 146.570312 904.707031 146.640625 C 904.824219 146.714844 904.917969 147.148438 904.917969 147.605469 C 904.917969 148.738281 904.199219 149.46875 903.09375 149.460938 C 902.65625 149.457031 902.089844 149.335938 901.832031 149.195312 Z M 940.601562 134.980469 C 939.640625 134.660156 938.765625 133.582031 938.371094 132.230469 C 937.855469 130.453125 937.929688 129.660156 938.679688 128.910156 C 939.238281 128.351562 939.425781 128.285156 940.207031 128.371094 C 942.054688 128.582031 943.273438 129.609375 943.285156 130.972656 C 943.289062 131.300781 943.433594 131.753906 943.601562 131.976562 C 944.101562 132.632812 943.984375 133.679688 943.332031 134.398438 C 942.675781 135.128906 941.679688 135.339844 940.601562 134.980469 Z M 920.136719 133.957031 C 918.285156 132.503906 918.207031 128.941406 920.003906 128.015625 C 921.402344 127.292969 922.808594 127.910156 923.664062 129.628906 C 924.578125 131.460938 924.300781 132.789062 922.792969 133.832031 C 921.816406 134.507812 920.894531 134.550781 920.136719 133.957031 Z M 860.582031 131.914062 C 859.574219 131.292969 858.242188 129.894531 858.089844 129.296875 C 857.863281 128.382812 858.421875 127.40625 859.535156 126.785156 C 860.847656 126.050781 861.503906 126.078125 862.542969 126.910156 C 863.007812 127.285156 863.628906 127.761719 863.921875 127.96875 C 864.359375 128.273438 864.457031 128.515625 864.457031 129.265625 C 864.457031 130.078125 864.34375 130.304688 863.441406 131.242188 C 862.304688 132.429688 861.664062 132.578125 860.582031 131.914062 Z M 889.671875 123.785156 C 888.46875 123.007812 887.992188 121.921875 888.34375 120.75 C 888.710938 119.535156 889.601562 118.695312 890.527344 118.695312 C 891.113281 118.695312 891.53125 118.929688 892.617188 119.851562 C 894.027344 121.054688 894.359375 121.671875 894.042969 122.5 C 893.792969 123.152344 893.257812 123.582031 892.179688 124 C 890.976562 124.464844 890.683594 124.441406 889.671875 123.785156 Z M 915.820312 117.292969 C 915.339844 117.117188 913.933594 115.726562 913.601562 115.09375 C 912.769531 113.511719 913.589844 112.121094 915.5 111.882812 C 917.179688 111.675781 917.191406 111.679688 919.75 114.125 C 920.390625 114.734375 920.382812 115.832031 919.734375 116.480469 C 919.054688 117.160156 916.765625 117.632812 915.820312 117.292969 Z M 915.820312 117.292969 " fill-opacity="1" fill-rule="nonzero"/></g><g clip-path="url(#af55193394)"><path fill="#cd816f" d="M 490.902344 458.210938 C 494.785156 450.816406 503.757812 450.382812 511.285156 451.074219 C 519.699219 451.855469 524.035156 449.605469 531.128906 445.476562 C 536.890625 442.125 542.21875 442.234375 548.320312 445.367188 C 555.699219 449.171875 554.1875 455.984375 560.164062 460.308594 C 565.707031 464.332031 574.074219 462.535156 579.964844 466.253906 C 585.875 469.996094 587.472656 476.460938 587.148438 483.140625 C 586.695312 492.246094 582.015625 500.765625 583.675781 509.996094 C 585.011719 517.433594 592.757812 525.066406 588.894531 532.914062 C 581.667969 547.597656 559.105469 535.292969 547.5 537.433594 C 534.949219 539.769531 515.921875 553.714844 503.84375 541.328125 C 498.496094 535.855469 501.386719 527.144531 501.277344 520.460938 C 501.125 511.164062 497.957031 508.351562 491.484375 502.300781 C 485.25 496.484375 480.3125 493.585938 482.769531 484.785156 C 484.238281 479.507812 491.398438 478.339844 492.734375 474.859375 C 494.351562 470.515625 488.679688 462.40625 490.902344 458.210938 Z M 490.902344 458.210938 " fill-opacity="1" fill-rule="nonzero"/></g><g clip-path="url(#032320a954)"><g clip-path="url(#b0d1b52600)"><g clip-path="url(#4f81c72c14)"><g clip-path="url(#3aaf1efaad)"><path fill="#a1d6b7" d="M 34.851562 232.699219 C 32.113281 238.992188 27.074219 244.472656 20.496094 246.472656 C 13.917969 248.472656 6.128906 246.070312 2.464844 240.289062 C -0.492188 235.445312 -0.132812 229.527344 -0.757812 223.949219 C -1.386719 218.375 -3.648438 212.046875 -9.132812 210.460938 C -13.183594 209.207031 -17.382812 210.835938 -21.511719 211.28125 C -30.027344 211.90625 -38.523438 205.628906 -40.390625 197.199219 C -42.308594 188.921875 -37.304688 179.628906 -29.261719 176.414062 C -26.101562 175.285156 -22.433594 174.675781 -20.175781 172.191406 C -17.335938 169.042969 -18.378906 163.667969 -21.054688 160.476562 C -23.886719 157.234375 -27.871094 155.3125 -31.703125 153.441406 C -35.535156 151.574219 -39.515625 149.136719 -41.457031 145.339844 C -44.351562 139.828125 -42.222656 132.804688 -37.769531 128.5 C -33.316406 124.195312 -27.152344 122.394531 -21.007812 121.625 C -11.554688 120.289062 -1.171875 121.703125 6.71875 127.25 C 14.765625 132.851562 19.6875 143.394531 16.898438 152.777344 C 15.417969 157.957031 11.839844 162.222656 9.746094 167.1875 C 7.652344 172.148438 7.382812 178.792969 11.550781 182.164062 C 16.277344 185.902344 22.964844 183.59375 28.855469 182.5625 C 35.417969 181.589844 42.511719 182.535156 47.648438 186.59375 C 52.988281 190.546875 56.011719 197.660156 54.097656 204.066406 C 53.277344 206.886719 51.171875 209.429688 48.722656 210.984375 C 46.011719 212.792969 42.929688 212.226562 40.128906 213.3125 C 35.351562 215.601562 37 227.582031 34.851562 232.699219 Z M -12.523438 233.796875 C -12.199219 229.9375 -15.6875 226.117188 -19.5 226.15625 C -23.46875 226.140625 -26.828125 229.792969 -26.636719 233.660156 C -26.316406 242.066406 -13.285156 242.339844 -12.523438 233.796875 Z M 61.84375 166.890625 C 62.167969 163.03125 58.679688 159.210938 54.863281 159.25 C 51.050781 159.285156 47.539062 162.886719 47.730469 166.753906 C 48.046875 175.160156 61.234375 175.488281 61.84375 166.890625 Z M 61.84375 166.890625 " fill-opacity="1" fill-rule="nonzero"/></g></g></g></g><g clip-path="url(#43160875e2)"><g clip-path="url(#8621c71fd7)"><g clip-path="url(#27448e7bc3)"><g clip-path="url(#fd2df65df1)"><path fill="#6abe8b" d="M 11.726562 123.832031 C 12.1875 123.996094 12.492188 124.101562 12.953125 124.265625 C 20.628906 127.488281 25.78125 133.449219 28.640625 138.085938 C 31.453125 142.359375 32.828125 146.300781 33.117188 150.375 C 33.5 155.175781 31.875 159.785156 28.785156 162.667969 C 27.738281 163.679688 26.382812 164.585938 25.234375 165.390625 C 23.203125 166.746094 21.167969 168.105469 20.257812 170.199219 C 18.648438 173.78125 21.15625 177.945312 24.464844 180.320312 C 26.398438 181.695312 28.496094 182.605469 30.84375 183.78125 C 32.480469 184.53125 34.269531 185.332031 36.007812 186.289062 C 43.863281 190.957031 48.699219 200.265625 47.871094 209.476562 C 47.863281 209.992188 47.449219 210.191406 46.933594 210.179688 C 46.417969 210.171875 46.21875 209.757812 46.226562 209.242188 C 46.992188 200.699219 42.453125 192.015625 35.003906 187.664062 C 33.421875 186.761719 31.785156 186.011719 29.996094 185.207031 C 27.746094 184.242188 25.394531 183.070312 23.308594 181.640625 C 19.59375 178.949219 16.6875 173.953125 18.621094 169.453125 C 19.695312 166.894531 21.9375 165.4375 24.175781 163.980469 C 25.324219 163.175781 26.472656 162.371094 27.464844 161.511719 C 30.085938 158.980469 31.546875 154.832031 31.15625 150.546875 C 30.910156 146.832031 29.429688 143.199219 26.921875 139.035156 C 24.109375 134.761719 19.417969 128.960938 12.050781 125.847656 C 5.554688 123.210938 -1.613281 123.449219 -7.234375 126.652344 C -13.113281 130.105469 -16.683594 136.796875 -15.660156 143.203125 C -14.953125 147.082031 -12.800781 150.777344 -10.691406 154.109375 C -10.140625 154.996094 -9.589844 155.882812 -9.039062 156.765625 C -5.484375 162.855469 -4.542969 168.027344 -6.210938 172.273438 C -7.558594 175.601562 -10.332031 178.078125 -13.050781 180.402344 C -16.292969 183.234375 -19.328125 185.964844 -19.597656 189.667969 C -19.839844 194.765625 -14.859375 198.769531 -10.304688 200.546875 C -8.921875 201.035156 -7.539062 201.519531 -6 202.0625 C -2.160156 203.417969 1.734375 204.617188 4.828125 207.605469 C 8.886719 211.285156 10.289062 216.613281 11.691406 221.945312 C 13.003906 226.554688 14.261719 231.316406 17.246094 234.617188 C 21.695312 239.636719 29.710938 240.910156 35.539062 237.605469 C 41.367188 234.304688 44.230469 226.675781 42.175781 220.25 C 41.976562 219.835938 42.292969 219.429688 42.707031 219.230469 C 43.125 219.03125 43.53125 219.347656 43.730469 219.761719 C 46.082031 226.8125 42.894531 235.363281 36.445312 238.960938 C 29.9375 242.714844 21.152344 241.175781 16.199219 235.628906 C 12.863281 231.859375 11.660156 226.945312 10.246094 222.128906 C 8.789062 216.949219 7.433594 211.980469 3.78125 208.621094 C 1.039062 206.097656 -2.648438 204.800781 -6.488281 203.445312 C -7.871094 202.957031 -9.40625 202.417969 -10.789062 201.929688 C -16.058594 199.726562 -21.601562 195.355469 -21.1875 189.28125 C -20.800781 184.753906 -17.503906 181.769531 -14.207031 178.785156 C -11.695312 176.5625 -8.976562 174.238281 -7.894531 171.164062 C -6.386719 167.375 -7.335938 162.722656 -10.691406 157.046875 C -11.242188 156.160156 -11.792969 155.277344 -12.347656 154.390625 C -14.550781 150.847656 -16.859375 147.101562 -17.457031 142.914062 C -18.472656 135.992188 -14.789062 128.480469 -8.128906 124.78125 C -2.101562 121.894531 5.117188 121.503906 11.726562 123.832031 Z M -25.484375 220.589844 C -27.546875 220.554688 -29.625 221.550781 -31.195312 223.070312 C -32.824219 224.742188 -33.582031 226.894531 -33.410156 228.855469 C -33.082031 233.808594 -29.203125 236.039062 -25.597656 236.101562 C -21.992188 236.160156 -17.933594 233.964844 -17.59375 229.074219 C -17.40625 227.066406 -18.191406 224.890625 -19.65625 223.164062 C -20.667969 222.117188 -21.789062 221.375 -23.019531 220.941406 C -23.839844 220.824219 -24.664062 220.707031 -25.484375 220.589844 Z M -31.863281 228.882812 C -31.992188 227.28125 -31.242188 225.644531 -30.085938 224.324219 C -28.773438 223.058594 -27.113281 222.261719 -25.566406 222.289062 C -24.023438 222.316406 -22.386719 223.066406 -21.121094 224.375 C -19.855469 225.683594 -19.265625 227.449219 -19.292969 228.992188 C -19.617188 232.851562 -22.632812 234.554688 -25.570312 234.554688 C -26.238281 234.492188 -27.0625 234.375 -27.832031 234.101562 C -29.882812 233.554688 -31.652344 231.71875 -31.863281 228.882812 Z M 49.035156 153.738281 C 46.972656 153.703125 44.894531 154.699219 43.324219 156.21875 C 41.699219 157.890625 40.9375 160.042969 41.113281 162.003906 C 41.4375 166.957031 45.316406 169.1875 48.921875 169.246094 C 52.527344 169.308594 56.585938 167.109375 56.925781 162.222656 C 57.117188 160.214844 56.328125 158.039062 54.863281 156.3125 C 53.851562 155.261719 52.730469 154.523438 51.5 154.089844 C 50.578125 153.765625 49.757812 153.648438 49.035156 153.738281 Z M 55.226562 162.140625 C 54.902344 166 51.886719 167.699219 48.949219 167.703125 C 46.011719 167.703125 42.847656 165.898438 42.65625 162.027344 C 42.53125 160.429688 43.28125 158.792969 44.4375 157.472656 C 45.746094 156.207031 47.40625 155.410156 48.953125 155.4375 C 50.5 155.464844 52.132812 156.214844 53.402344 157.523438 C 54.667969 158.832031 55.308594 160.441406 55.226562 162.140625 Z M 55.226562 162.140625 " fill-opacity="1" fill-rule="nonzero"/></g></g></g></g><path fill="#a1c5ff" d="M 569.894531 132.5625 C 564.507812 100.894531 577.242188 84.238281 604.957031 100.160156 C 611.226562 103.761719 618.203125 102.589844 624.910156 100.78125 C 653.15625 92.078125 657.355469 152.398438 616.886719 148.792969 C 609.582031 148.75 603.785156 151.746094 598.085938 155.585938 C 590.855469 160.449219 583.445312 170.25 574.492188 164.289062 C 564.441406 157.820312 570.253906 140.960938 569.894531 132.5625 Z M 569.894531 132.5625 " fill-opacity="1" fill-rule="nonzero"/><g clip-path="url(#370a688595)"><path fill="#33679a" d="M 56.738281 539.148438 C 56.890625 546.214844 55.433594 557.058594 45.328125 552.71875 C 39.417969 550.179688 37.398438 540.671875 30.636719 537.433594 C 17.019531 530.914062 5.289062 538.9375 -4.003906 548.367188 C -7.941406 552.363281 -11.972656 556.5 -14.101562 561.691406 C -16.226562 566.886719 -16.011719 573.460938 -12.078125 577.457031 C -10.691406 578.867188 -8.914062 579.902344 -7.765625 581.515625 C -4.894531 585.554688 -7.074219 591.113281 -9.273438 595.554688 C -13.390625 603.855469 -17.429688 612.347656 -19.015625 621.480469 C -20.597656 630.609375 -19.449219 640.597656 -13.9375 648.039062 C -8.425781 655.480469 2.042969 659.539062 10.558594 655.929688 C 18.207031 652.691406 23.664062 644.03125 31.964844 643.933594 C 37.058594 643.875 41.539062 647.195312 46.488281 648.421875 C 52.273438 649.855469 58.734375 648.1875 63.105469 644.128906 C 68.875 638.777344 72.996094 628.929688 80.753906 630.179688 C 90.679688 631.78125 89.046875 648.855469 97.980469 653.464844 C 104.46875 656.8125 112.585938 650.761719 114.210938 643.636719 C 115.839844 636.511719 113.097656 629.199219 110.464844 622.378906 C 107.835938 615.5625 105.238281 608.152344 107.148438 601.097656 C 108.039062 597.8125 109.851562 594.859375 111.050781 591.675781 C 114.605469 582.242188 110.976562 569.578125 101.4375 566.367188 C 98.347656 565.328125 94.917969 565.324219 92.003906 563.859375 C 84.960938 560.3125 84.335938 550.613281 85.027344 542.746094 C 85.714844 534.878906 86.109375 525.464844 79.777344 520.761719 C 74.867188 517.113281 67.445312 518.292969 62.953125 522.445312 C 58.457031 526.59375 56.601562 533.023438 56.738281 539.148438 Z M 56.738281 539.148438 " fill-opacity="1" fill-rule="nonzero"/></g></svg>