<svg xmlns="http://www.w3.org/2000/svg" xmlns:xlink="http://www.w3.org/1999/xlink" width="1366" zoomAndPan="magnify" viewBox="0 0 1024.5 576" height="768" preserveAspectRatio="xMidYMid meet" version="1.0"><defs><clipPath id="7621f84cf1"><path d="M 880 377 L 997 377 L 997 507 L 880 507 Z M 880 377 " clip-rule="nonzero"/></clipPath><clipPath id="83db8c7fb9"><path d="M 972.597656 357.886719 L 1024.152344 462.851562 L 910.441406 518.703125 L 858.886719 413.734375 Z M 972.597656 357.886719 " clip-rule="nonzero"/></clipPath><clipPath id="590a43c07b"><path d="M 972.597656 357.886719 L 1024.152344 462.851562 L 910.441406 518.703125 L 858.886719 413.734375 Z M 972.597656 357.886719 " clip-rule="nonzero"/></clipPath><clipPath id="8ed916df41"><path d="M 972.597656 357.886719 L 1024.152344 462.851562 L 910.441406 518.703125 L 858.886719 413.734375 Z M 972.597656 357.886719 " clip-rule="nonzero"/></clipPath><clipPath id="2f274f5f28"><path d="M 880 372 L 999 372 L 999 489 L 880 489 Z M 880 372 " clip-rule="nonzero"/></clipPath><clipPath id="1743608975"><path d="M 972.597656 357.886719 L 1024.152344 462.851562 L 910.441406 518.703125 L 858.886719 413.734375 Z M 972.597656 357.886719 " clip-rule="nonzero"/></clipPath><clipPath id="92af1a4485"><path d="M 972.597656 357.886719 L 1024.152344 462.851562 L 910.441406 518.703125 L 858.886719 413.734375 Z M 972.597656 357.886719 " clip-rule="nonzero"/></clipPath><clipPath id="65af7b4e82"><path d="M 972.597656 357.886719 L 1024.152344 462.851562 L 910.441406 518.703125 L 858.886719 413.734375 Z M 972.597656 357.886719 " clip-rule="nonzero"/></clipPath><clipPath id="6e18b25faa"><path d="M 25 78 L 129 78 L 129 192 L 25 192 Z M 25 78 " clip-rule="nonzero"/></clipPath><clipPath id="d1a1c2a900"><path d="M 145.136719 115.804688 L 76.726562 205.988281 L 0.28125 147.996094 L 68.691406 57.8125 Z M 145.136719 115.804688 " clip-rule="nonzero"/></clipPath><clipPath id="96e6b2d72f"><path d="M 145.136719 115.804688 L 76.726562 205.988281 L 0.28125 147.996094 L 68.691406 57.8125 Z M 145.136719 115.804688 " clip-rule="nonzero"/></clipPath><clipPath id="645ddd7585"><path d="M 145.136719 115.804688 L 76.726562 205.988281 L 0.28125 147.996094 L 68.691406 57.8125 Z M 145.136719 115.804688 " clip-rule="nonzero"/></clipPath></defs><g clip-path="url(#7621f84cf1)"><g clip-path="url(#83db8c7fb9)"><g clip-path="url(#590a43c07b)"><g clip-path="url(#8ed916df41)"><path fill="#a1d6b7" d="M 949.769531 379.089844 C 956.242188 376.464844 963.816406 376.078125 970.027344 379.320312 C 976.238281 382.5625 980.199219 389.871094 978.742188 396.691406 C 977.445312 402.324219 972.964844 406.375 969.449219 410.878906 C 965.933594 415.382812 963.074219 421.601562 965.933594 426.671875 C 967.988281 430.476562 972.203125 432.289062 975.527344 434.914062 C 982.167969 440.535156 983.878906 451.167969 979.230469 458.636719 C 974.730469 466.027344 964.46875 469.214844 956.328125 465.8125 C 953.222656 464.375 950.117188 462.199219 946.703125 462.394531 C 942.398438 462.660156 939.328125 467.316406 939 471.546875 C 938.75 475.925781 940.28125 480.171875 941.738281 484.265625 C 943.195312 488.363281 944.351562 492.976562 943.066406 497.125 C 941.242188 503.203125 934.691406 506.789062 928.382812 506.742188 C 922.078125 506.695312 916.308594 503.605469 911.289062 499.777344 C 903.460938 494 896.910156 485.558594 895.121094 475.886719 C 893.253906 466.070312 897.1875 454.886719 905.898438 450.050781 C 910.664062 447.339844 916.308594 446.789062 921.367188 444.675781 C 926.429688 442.558594 931.355469 437.917969 930.722656 432.492188 C 929.945312 426.394531 923.4375 423.300781 918.414062 419.847656 C 912.949219 415.867188 908.460938 410.113281 907.613281 403.5 C 906.542969 396.804688 909.410156 389.476562 915.367188 386.179688 C 917.976562 384.714844 921.316406 384.367188 924.207031 384.984375 C 927.46875 385.601562 929.304688 388.21875 932.117188 389.425781 C 937.226562 391.175781 944.5625 381.277344 949.769531 379.089844 Z M 985.023438 412.113281 C 982.039062 414.691406 981.855469 419.960938 984.660156 422.65625 C 987.535156 425.5 992.582031 425.242188 995.199219 422.292969 C 1000.953125 415.949219 991.664062 406.445312 985.023438 412.113281 Z M 883.246094 407.691406 C 880.261719 410.269531 880.078125 415.539062 882.878906 418.234375 C 885.683594 420.929688 890.804688 420.820312 893.421875 417.871094 C 899.175781 411.527344 889.8125 401.875 883.246094 407.691406 Z M 883.246094 407.691406 " fill-opacity="1" fill-rule="nonzero"/></g></g></g></g><g clip-path="url(#2f274f5f28)"><g clip-path="url(#1743608975)"><g clip-path="url(#92af1a4485)"><g clip-path="url(#65af7b4e82)"><path fill="#6abe8b" d="M 889.042969 474.800781 C 888.820312 474.355469 888.675781 474.054688 888.457031 473.609375 C 885.167969 465.785156 885.664062 457.769531 886.886719 452.355469 C 887.886719 447.238281 889.691406 443.390625 892.382812 440.21875 C 895.523438 436.453125 899.992188 434.261719 904.292969 434.367188 C 905.777344 434.378906 907.410156 434.6875 908.816406 434.921875 C 911.261719 435.386719 913.707031 435.851562 915.867188 434.976562 C 919.585938 433.519531 920.730469 428.703125 920.015625 424.609375 C 919.585938 422.230469 918.710938 420.070312 917.835938 417.539062 C 917.179688 415.824219 916.449219 413.964844 915.867188 412.027344 C 913.476562 403.023438 916.585938 392.796875 923.75 386.6875 C 924.125 386.320312 924.566406 386.472656 924.9375 386.847656 C 925.304688 387.21875 925.152344 387.664062 924.78125 388.035156 C 918.140625 393.703125 915.257812 403.257812 917.574219 411.742188 C 918.082031 413.53125 918.742188 415.242188 919.46875 417.105469 C 920.421875 419.414062 921.292969 421.949219 921.796875 424.476562 C 922.582031 429.085938 921.136719 434.792969 916.523438 436.691406 C 913.917969 437.785156 911.25 437.242188 908.582031 436.703125 C 907.175781 436.46875 905.765625 436.234375 904.429688 436.152344 C 900.722656 436.125 896.703125 438.097656 893.933594 441.492188 C 891.464844 444.371094 889.957031 448.070312 888.8125 452.890625 C 887.816406 458.007812 887.097656 465.578125 890.238281 473.101562 C 893.089844 479.660156 898.476562 484.601562 904.847656 486.285156 C 911.585938 487.972656 918.949219 485.652344 922.769531 480.257812 C 925.015625 476.933594 926.082031 472.710938 926.925781 468.78125 C 927.152344 467.742188 927.382812 466.703125 927.613281 465.664062 C 929.363281 458.699219 932.363281 454.265625 936.605469 452.367188 C 939.953125 450.90625 943.734375 451.085938 947.371094 451.335938 C 951.746094 451.589844 955.902344 451.773438 958.738281 449.269531 C 962.542969 445.734375 961.769531 439.265625 959.722656 434.71875 C 959.0625 433.378906 958.402344 432.035156 957.671875 430.542969 C 955.839844 426.816406 953.859375 423.164062 953.742188 418.78125 C 953.40625 413.207031 956.183594 408.328125 958.960938 403.445312 C 961.289062 399.15625 963.765625 394.792969 963.945312 390.265625 C 964.285156 383.433594 959.359375 376.789062 952.765625 375.027344 C 946.171875 373.269531 938.65625 376.777344 935.574219 382.917969 C 935.421875 383.363281 934.902344 383.433594 934.457031 383.28125 C 934.011719 383.128906 933.941406 382.609375 934.09375 382.164062 C 937.402344 375.355469 945.8125 371.410156 953.074219 373.398438 C 960.480469 375.3125 965.773438 382.703125 965.429688 390.277344 C 965.171875 395.398438 962.546875 399.835938 960.144531 404.347656 C 957.515625 409.152344 954.960938 413.738281 955.226562 418.792969 C 955.421875 422.582031 957.179688 426.160156 959.011719 429.886719 C 959.671875 431.226562 960.402344 432.71875 961.0625 434.0625 C 963.328125 439.425781 964.246094 446.5625 959.617188 450.6875 C 956.109375 453.703125 951.585938 453.519531 947.058594 453.339844 C 943.648438 453.164062 940.015625 452.914062 937.035156 454.375 C 933.242188 456.054688 930.617188 460.117188 929.015625 466.640625 C 928.785156 467.679688 928.558594 468.71875 928.328125 469.757812 C 927.410156 473.90625 926.417969 478.28125 923.871094 481.753906 C 919.679688 487.515625 911.648438 490.347656 904.164062 488.285156 C 897.722656 486.082031 892.191406 481.214844 889.042969 474.800781 Z M 985.050781 430.976562 C 986.523438 432.472656 988.746094 433.234375 990.972656 433.25 C 993.347656 433.195312 995.429688 432.171875 996.703125 430.621094 C 999.992188 426.785156 998.757812 422.394531 996.179688 419.773438 C 993.597656 417.15625 989.082031 415.859375 985.347656 419.171875 C 983.78125 420.496094 982.804688 422.640625 982.640625 424.945312 C 982.628906 426.429688 982.917969 427.769531 983.503906 428.960938 C 984.019531 429.632812 984.535156 430.304688 985.050781 430.976562 Z M 995.597656 429.5 C 994.550781 430.753906 992.839844 431.410156 991.058594 431.542969 C 989.203125 431.53125 987.425781 430.921875 986.320312 429.800781 C 985.214844 428.675781 984.554688 426.964844 984.570312 425.105469 C 984.582031 423.25 985.40625 421.546875 986.527344 420.441406 C 989.511719 417.867188 992.921875 418.785156 995.058594 420.878906 C 995.5 421.402344 996.015625 422.074219 996.382812 422.820312 C 997.484375 424.6875 997.464844 427.285156 995.597656 429.5 Z M 883.199219 426.40625 C 884.671875 427.90625 886.894531 428.664062 889.121094 428.679688 C 891.496094 428.625 893.578125 427.601562 894.851562 426.050781 C 898.140625 422.214844 896.90625 417.824219 894.328125 415.203125 C 891.746094 412.585938 887.230469 411.289062 883.5 414.601562 C 881.929688 415.925781 880.953125 418.074219 880.789062 420.375 C 880.78125 421.859375 881.066406 423.199219 881.652344 424.390625 C 882.09375 425.285156 882.609375 425.957031 883.199219 426.40625 Z M 884.675781 415.875 C 887.660156 413.296875 891.070312 414.214844 893.207031 416.308594 C 895.347656 418.40625 896.363281 421.980469 893.746094 424.929688 C 892.699219 426.183594 890.988281 426.839844 889.207031 426.972656 C 887.351562 426.960938 885.574219 426.351562 884.46875 425.230469 C 883.363281 424.105469 882.707031 422.394531 882.71875 420.539062 C 882.730469 418.679688 883.40625 417.050781 884.675781 415.875 Z M 884.675781 415.875 " fill-opacity="1" fill-rule="nonzero"/></g></g></g></g><g clip-path="url(#6e18b25faa)"><g clip-path="url(#d1a1c2a900)"><g clip-path="url(#96e6b2d72f)"><g clip-path="url(#645ddd7585)"><path fill="#fab885" d="M 127.757812 106.660156 C 125.273438 100.8125 118.851562 97.632812 112.882812 95.3125 C 106.910156 92.988281 100.390625 90.65625 96.730469 85.40625 C 95.621094 83.820312 94.804688 81.996094 93.347656 80.714844 C 90.558594 78.269531 86.1875 78.59375 83.128906 80.4375 C 80.074219 82.285156 78.003906 85.308594 75.914062 88.179688 C 73.828125 91.046875 71.511719 93.953125 68.21875 95.371094 C 61.535156 98.253906 53.46875 94.121094 46.234375 95.410156 C 40.738281 96.386719 36.339844 100.460938 33.667969 105.242188 C 30.992188 110.019531 29.792969 115.488281 28.621094 120.875 C 26.886719 128.855469 25.144531 136.898438 25.074219 145.125 C 25.007812 152.777344 26.476562 160.683594 30.574219 167.355469 C 34.671875 174.027344 41.667969 179.296875 49.402344 180.132812 C 55.75 180.816406 62.828125 178.761719 68.078125 182.527344 C 71.167969 184.738281 72.910156 188.59375 76.285156 190.324219 C 83.996094 194.273438 92.042969 185.785156 95.21875 180.042969 C 99.015625 173.171875 99.292969 165.234375 98.035156 157.476562 C 97.226562 152.457031 95.5625 147.027344 98.152344 142.386719 C 102.011719 135.472656 111.609375 132.71875 117.878906 128.480469 C 124.636719 123.914062 131.53125 115.554688 127.757812 106.660156 " fill-opacity="1" fill-rule="nonzero"/></g></g></g></g></svg>